<?xml version="1.0" standalone="no"?>
<!DOCTYPE svg PUBLIC "-//W3C//DTD SVG 20010904//EN"
 "http://www.w3.org/TR/2001/REC-SVG-20010904/DTD/svg10.dtd">
<svg version="1.0" xmlns="http://www.w3.org/2000/svg"
 width="256.000000pt" height="256.000000pt" viewBox="0 0 256.000000 256.000000"
 preserveAspectRatio="xMidYMid meet">
<metadata>
Created by potrace 1.14, written by Peter Selinger 2001-2017
</metadata>
<g transform="translate(0.000000,256.000000) scale(0.100000,-0.100000)"
fill="#000000" stroke="none">
<path d="M1125 2479 c-189 -24 -409 -113 -561 -227 -680 -508 -649 -1523 61
-1986 414 -270 956 -257 1358 32 488 351 645 1002 370 1535 -233 451 -725 710
-1228 646z m328 -54 c497 -75 891 -466 972 -965 90 -559 -253 -1113 -793
-1284 -551 -173 -1141 80 -1392 598 -106 219 -140 440 -105 678 95 631 687
1068 1318 973z"/>
<path d="M1755 1760 c-249 -51 -389 -237 -389 -515 0 -171 41 -281 139 -374
90 -86 212 -130 354 -131 78 0 222 33 276 63 l40 23 3 221 c2 193 0 223 -14
237 -14 14 -41 16 -192 14 l-177 -3 0 -50 0 -50 128 -3 127 -3 0 -143 0 -144
-47 -19 c-35 -13 -75 -18 -148 -18 -89 0 -106 3 -157 28 -258 126 -264 582 -9
721 112 61 249 56 388 -15 45 -22 87 -38 92 -34 19 11 13 93 -8 114 -68 68
-272 108 -406 81z"/>
<path d="M443 1753 c-10 -4 -13 -113 -13 -498 0 -545 -5 -505 65 -505 68 0 65
-11 65 241 l0 229 230 0 230 0 0 -229 c0 -252 -3 -241 65 -241 70 0 65 -40 65
505 0 545 5 505 -65 505 -68 0 -65 9 -65 -216 l0 -204 -230 0 -230 0 0 204 c0
177 -2 205 -16 210 -18 7 -83 7 -101 -1z"/>
</g>
</svg>
